<?xml version="1.0" encoding="utf-8"?>
<!-- Generator: Adobe Illustrator 21.0.0, SVG Export Plug-In . SVG Version: 6.00 Build 0)  -->
<svg version="1.1" id="Capa_1" xmlns="http://www.w3.org/2000/svg" xmlns:xlink="http://www.w3.org/1999/xlink" x="0px" y="0px"
	 viewBox="0 0 500 466.9" style="enable-background:new 0 0 500 466.9;" xml:space="preserve">
<style type="text/css">
	.st0{fill:#DDD7CD;}
</style>
<g>
	<g id="camera">
		<path class="st0" d="M234.4,224.5l28.8-49.8c-4.2-0.6-9-1.2-13.2-1.2c-14.4,0-27.6,4.8-37.8,13.8l22.2,37.8L234.4,224.5
			L234.4,224.5z M307,215.5c-5.4-17.4-18.6-31.8-36-37.8l-21.6,37.8H307z M308.8,221.5h-45l1.8,3l28.8,49.8
			c9.6-10.8,15.6-25.2,15.6-40.8C310,229.3,309.4,225,308.8,221.5z M229,233.5l-23.4-40.8c-9.6,10.8-15.6,25.2-15.6,40.8
			c0,4.2,0.6,8.4,1.2,12h45L229,233.5z M193,251.5c5.4,17.4,18.6,31.8,36,37.8l22.2-37.8H193L193,251.5z M260.2,251.5l-23.4,40.8
			c4.2,1.2,8.4,1.2,13.2,1.2c14.4,0,27.6-4.8,37.8-13.8L265.6,242L260.2,251.5z"/>
	</g>
</g>
</svg>
