<?xml version="1.0" encoding="utf-8"?>
<!-- Generator: Adobe Illustrator 21.0.0, SVG Export Plug-In . SVG Version: 6.00 Build 0)  -->
<svg version="1.1" id="Layer_1" xmlns="http://www.w3.org/2000/svg" xmlns:xlink="http://www.w3.org/1999/xlink" x="0px" y="0px"
	 viewBox="0 0 31.1 23.5" style="enable-background:new 0 0 31.1 23.5;" xml:space="preserve">
<style type="text/css">
</style>
<line stroke="#5D6572" stroke-width="1.5" stroke-linecap="round" stroke-linejoin="round" x1="9.7" y1="21.3" x2="21.3" y2="1.8"/>
<g>
	<path fill="5D6572" d="M11.8,2c0.6,0.5,1.1,1,1.4,1.6s0.5,1.2,0.5,1.9s-0.1,1.4-0.4,2.1c-0.3,0.7-0.7,1.5-1.3,2.2
		c-0.6,0.7-1.2,1.3-1.9,1.8c-0.7,0.4-1.3,0.7-2,0.8c-0.7,0.1-1.3,0.1-2-0.1s-1.3-0.5-1.9-1s-1-1-1.4-1.6C2.5,9.2,2.4,8.6,2.3,7.9
		c0-0.7,0.1-1.4,0.4-2.1s0.7-1.5,1.4-2.2C4.7,2.8,5.3,2.2,6,1.8S7.3,1,8,0.9S9.3,0.8,10,1S11.2,1.5,11.8,2z M4.9,10.5
		c0.4,0.4,0.9,0.6,1.4,0.8c0.5,0.1,1,0.2,1.5,0.1s1.1-0.3,1.6-0.7c0.5-0.4,1.1-0.8,1.6-1.5c0.5-0.6,0.9-1.2,1.1-1.8
		c0.2-0.6,0.4-1.2,0.3-1.7s-0.1-1-0.4-1.5c-0.2-0.5-0.6-0.9-1-1.2c-0.5-0.4-0.9-0.6-1.4-0.8C9.2,2,8.7,2,8.1,2.1
		c-0.5,0.1-1,0.3-1.6,0.7S5.5,3.6,5,4.3C4.5,4.9,4.1,5.5,3.9,6.1S3.5,7.2,3.5,7.8s0.1,1,0.4,1.5S4.5,10.1,4.9,10.5z"/>
</g>
<g>
	<path fill="5D6572" d="M27.6,12.5c0.6,0.5,1.1,1,1.4,1.6c0.3,0.6,0.5,1.2,0.5,1.9c0,0.7-0.1,1.4-0.4,2.1c-0.3,0.7-0.7,1.5-1.3,2.2
		c-0.6,0.7-1.2,1.3-1.9,1.8c-0.7,0.4-1.3,0.7-2,0.8c-0.7,0.1-1.3,0.1-2-0.1c-0.7-0.2-1.3-0.5-1.9-1c-0.6-0.5-1-1-1.4-1.6
		s-0.5-1.2-0.5-1.9c0-0.7,0.1-1.4,0.4-2.1c0.3-0.7,0.7-1.5,1.4-2.2c0.6-0.7,1.2-1.3,1.9-1.8c0.7-0.4,1.3-0.7,2-0.8
		c0.7-0.1,1.3-0.1,2,0.1C26.4,11.7,27,12,27.6,12.5z M20.7,21c0.4,0.4,0.9,0.6,1.4,0.8c0.5,0.1,1,0.2,1.5,0.1
		c0.5-0.1,1.1-0.3,1.6-0.7s1.1-0.8,1.6-1.5c0.5-0.6,0.9-1.2,1.1-1.8c0.2-0.6,0.4-1.2,0.3-1.7s-0.1-1-0.4-1.5c-0.2-0.5-0.6-0.9-1-1.2
		c-0.5-0.4-0.9-0.6-1.4-0.8c-0.5-0.1-1-0.2-1.5-0.1c-0.5,0.1-1,0.3-1.6,0.7s-1,0.8-1.6,1.5c-0.5,0.6-0.9,1.2-1.1,1.8
		c-0.2,0.6-0.4,1.2-0.4,1.7c0,0.5,0.1,1,0.4,1.5S20.2,20.7,20.7,21z"/>
</g>
</svg>
