<?xml version="1.0" encoding="utf-8"?>
<!-- Generator: Adobe Illustrator 21.0.0, SVG Export Plug-In . SVG Version: 6.00 Build 0)  -->
<svg version="1.1" id="Layer_1" xmlns="http://www.w3.org/2000/svg" xmlns:xlink="http://www.w3.org/1999/xlink" x="0px" y="0px"
	 viewBox="0 0 35 35" style="enable-background:new 0 0 35 35;" xml:space="preserve">
<style type="text/css">
</style>
<path fill="none" stroke="#FFFFFF" stroke-width="2" stroke-linecap="round" stroke-linejoin="round" d="M29,30c0,0.6-0.4,1-1,1H4c-0.6,0-1-0.4-1-1V2c0-0.6,0.4-1,1-1h24c0.6,0,1,0.4,1,1V30z"/>
<line fill="none" stroke="#FFFFFF" stroke-width="2" stroke-linecap="round" stroke-linejoin="round" x1="24" y1="25" x2="8" y2="25"/>
<line fill="none" stroke="#FFFFFF" stroke-width="2" stroke-linecap="round" stroke-linejoin="round" x1="24" y1="18" x2="8" y2="18"/>
<line fill="none" stroke="#FFFFFF" stroke-width="2" stroke-linecap="round" stroke-linejoin="round" x1="24" y1="11" x2="8" y2="11"/>
<path fill="none" stroke="#FFFFFF" stroke-width="2" stroke-linecap="round" stroke-linejoin="round" d="M29,4h2c0.6,0,1,0.4,1,1v28c0,0.6-0.4,1-1,1H7c-0.6,0-1-0.4-1-1v-2"/>
<path fill="none" stroke="#FFFFFF" stroke-width="2" stroke-linecap="round" stroke-linejoin="round" d="M25,1L25,1c0,2.2-1.8,4-4,4H11C8.8,5,7,3.2,7,1l0,0"/>
</svg>
