<?xml version="1.0" encoding="utf-8"?>
<!-- Generator: Adobe Illustrator 21.0.0, SVG Export Plug-In . SVG Version: 6.00 Build 0)  -->
<svg version="1.1" id="Layer_1" xmlns="http://www.w3.org/2000/svg" xmlns:xlink="http://www.w3.org/1999/xlink" x="0px" y="0px"
	 viewBox="0 0 34 35" style="enable-background:new 0 0 34 35;" xml:space="preserve">
<style type="text/css">
</style>
<rect x="-8" y="-7.5" fill="none" width="50" height="50"/>
<path fill="none" stroke="#FFFFFF" stroke-width="2" stroke-miterlimit="10" d="M20.4,24.2c0,0,2.6-1.5,3.3-1.9c0.7-0.4,1.4-0.5,1.8-0.2c0.7,0.4,6.2,4.1,6.6,4.4c0.5,0.3,0.7,1.3,0,2.2
	c-0.6,0.9-3.6,4.5-4.8,4.5c-1.2,0-6.4-0.2-16.2-9.9C1.5,13.5,1.4,8.3,1.4,7.1c0-1.2,3.6-4.2,4.5-4.8C6.7,1.6,7.7,1.9,8,2.3
	c0.4,0.5,4,6,4.4,6.6c0.3,0.4,0.2,1.1-0.2,1.8c-0.4,0.7-1.9,3.3-1.9,3.3s1.1,1.8,4.7,5.4C18.6,23.1,20.4,24.2,20.4,24.2z"/>
</svg>
