<?xml version="1.0" encoding="utf-8"?>
<!-- Generator: Adobe Illustrator 21.0.0, SVG Export Plug-In . SVG Version: 6.00 Build 0)  -->
<svg version="1.1" id="Слой_1" xmlns="http://www.w3.org/2000/svg" xmlns:xlink="http://www.w3.org/1999/xlink" x="0px" y="0px"
	 viewBox="0 0 13.5 13.5" style="enable-background:new 0 0 13.5 13.5;" xml:space="preserve">
<style type="text/css">
</style>
<g>
	<g id="Layer_1_64_">
		<g>
			<path fill="#DBB419" d="M6.5,6.5c0,0.2,0.1,0.3,0.3,0.3c0.2,0,0.3-0.1,0.3-0.3c0-0.3,0.1-0.7,0.3-1C7.9,5,8.3,4.3,8.5,3.6
				c0-0.1,0-0.2,0-0.3C8.4,3.3,8.3,3.2,8.2,3.2h-3c-0.1,0-0.2,0-0.2,0.1C5,3.4,5,3.6,5,3.6C5.2,4.3,5.6,5,6.1,5.6
				C6.3,5.8,6.5,6.2,6.5,6.5z"/>
			<path fill="#DBB419" d="M7.1,7.7c0-0.2-0.1-0.3-0.3-0.3c-0.2,0-0.3,0.1-0.3,0.3c0,0.4-0.3,0.9-0.7,1.2c-1,0.7-1.7,1.5-2.2,2.4
				c-0.1,0.1-0.1,0.2,0,0.3c0.1,0.1,0.2,0.1,0.3,0.1h6c0.1,0,0.2-0.1,0.3-0.1c0.1-0.1,0.1-0.2,0-0.3c-0.5-0.8-1.2-1.6-2.2-2.4
				C7.3,8.6,7.1,8.1,7.1,7.7z"/>
			<path fill="#DBB419" d="M12,12.2h-0.2c-0.2-2.3-1.6-4.1-2.6-5.4c1.1-1.3,2.4-3,2.6-5.4H12c0.3,0,0.6-0.3,0.6-0.6
				c0-0.3-0.3-0.6-0.6-0.6H1.5c-0.3,0-0.6,0.3-0.6,0.6c0,0.3,0.3,0.6,0.6,0.6h0.2c0.2,2.3,1.6,4.1,2.6,5.4c-1.1,1.3-2.4,3-2.6,5.4
				H1.5c-0.3,0-0.6,0.3-0.6,0.6c0,0.3,0.3,0.6,0.6,0.6h0.7h8.9H12c0.3,0,0.6-0.3,0.6-0.6C12.6,12.4,12.3,12.2,12,12.2z M2.9,12.2
				c0.2-2.1,1.6-3.7,2.6-4.9l0.1-0.1c0.2-0.2,0.2-0.5,0-0.8L5.5,6.4c-1-1.2-2.4-2.8-2.6-4.9h7.7C10.4,3.5,9,5.2,8,6.4L7.9,6.4
				C7.8,6.6,7.8,7,7.9,7.2L8,7.3c1,1.2,2.4,2.8,2.6,4.9C10.6,12.2,2.9,12.2,2.9,12.2z"/>
		</g>
	</g>
</g>
</svg>
