<?xml version="1.0" encoding="utf-8"?>
<!-- Generator: Adobe Illustrator 21.0.0, SVG Export Plug-In . SVG Version: 6.00 Build 0)  -->
<svg version="1.1" id="Слой_1" xmlns="http://www.w3.org/2000/svg" xmlns:xlink="http://www.w3.org/1999/xlink" x="0px" y="0px"
	 viewBox="0 0 13.5 13.5" style="enable-background:new 0 0 13.5 13.5;" xml:space="preserve">
<style type="text/css">
</style>
<g id="Forma_1_копия_4">
	<g>
		<path fill-rule="evenodd" clip-rule="evenodd" fill="#DE3F1A" d="M11.5,2c-1.3-1.3-3-2-4.8-2C4.9,0,3.3,0.7,2,2s-2,3-2,4.8c0,1.8,0.7,3.5,2,4.8s3,2,4.8,2s3.5-0.7,4.8-2
			s2-3,2-4.8C13.5,4.9,12.8,3.3,11.5,2z M8.3,6.9l1.7,1.7c0.1,0.1,0.1,0.4,0,0.5l-1,1c-0.1,0.1-0.2,0.1-0.2,0.1s-0.2,0-0.2-0.1
			L6.8,8.3c0,0-0.1,0-0.1,0L5,10c-0.1,0.1-0.2,0.1-0.2,0.1s-0.2,0-0.2-0.1l-1-1C3.5,9,3.4,8.9,3.4,8.8c0-0.1,0-0.2,0.1-0.2l1.7-1.7
			c0,0,0-0.1,0-0.1L3.4,5C3.4,4.9,3.3,4.8,3.3,4.8s0-0.2,0.1-0.2l1-1c0.1-0.1,0.2-0.1,0.2-0.1s0.2,0,0.2,0.1l1.8,1.8
			c0,0,0.1,0,0.1,0l1.8-1.8c0.1-0.1,0.2-0.1,0.2-0.1S9,3.5,9,3.5l1,1c0.1,0.1,0.1,0.2,0.1,0.2c0,0.1,0,0.2-0.1,0.2L8.3,6.8
			C8.2,6.8,8.2,6.8,8.3,6.9z"/>
	</g>
</g>
</svg>
