<?xml version="1.0" encoding="UTF-8"?>
<!DOCTYPE svg PUBLIC "-//W3C//DTD SVG 1.1//EN" "http://www.w3.org/Graphics/SVG/1.1/DTD/svg11.dtd">
<!-- Creator: CorelDRAW X6 -->
<svg xmlns="http://www.w3.org/2000/svg" xml:space="preserve" width="210mm" height="297mm" version="1.1" style="shape-rendering:geometricPrecision; text-rendering:geometricPrecision; image-rendering:optimizeQuality; fill-rule:evenodd; clip-rule:evenodd"
viewBox="0 0 21000 29700"
 xmlns:xlink="http://www.w3.org/1999/xlink">
 <defs>
  <style type="text/css">
   <![CDATA[
    .fil0 {fill:#B8CE9F}
    .fil1 {fill:#BACD9F}
   ]]>
  </style>
 </defs>
 <g id="Слой_x0020_1">
  <metadata id="CorelCorpID_0Corel-Layer"/>
  <path class="fil0" d="M4143 10441l-4 7602c453,401 131,331 727,330l2249 1 160 -237c129,-156 82,-123 236,-225l477 445 6331 17c986,0 1315,139 1689,-230l73 -7614c-123,-466 -597,-354 -1167,-354l-7007 -2c-66,96 -309,400 -396,465 -741,-486 238,-463 -1983,-463 -1326,0 -898,-84 -1385,265zm854 727c0,796 92,6027 -63,6345l1716 1 384 -413c-200,-1101 -80,-1108 341,-1111 68,0 212,-4 273,-1 49,3 81,2 122,10 307,58 197,457 205,1120l408 380 6860 16 2 -6543 -5950 -2c-1350,-1 -1322,97 -1323,1519 -941,0 -984,109 -995,-324 -9,-356 10,-525 71,-800l-407 -378 -1707 -16c44,82 63,72 63,197z"/>
  <path class="fil1" d="M10688 16325c178,125 180,129 461,129l1390 -4161 -461 -190 -705 2065c-135,413 -660,1877 -685,2157z"/>
  <path class="fil0" d="M12144 14674c-454,195 -490,665 -376,1165 184,809 1670,864 1420,-693 -62,-382 -281,-533 -649,-545 -8,0 -198,3 -201,3 -377,48 -23,-3 -194,70zm328 1122c82,-127 94,-313 64,-457 -28,-130 -19,-68 -64,-136l-48 84c-15,66 -25,104 -28,178l76 331z"/>
  <path class="fil0" d="M10027 13152c0,517 159,961 780,914 487,-38 677,-356 677,-914 0,-573 -138,-863 -730,-865 -587,-1 -727,283 -727,865zm727 331l76 -264c0,-5 -11,-189 -12,-194 -28,-131 -23,-75 -64,-139 -136,218 -133,393 0,597z"/>
  <path class="fil0" d="M8008 15432l1 -924 -995 0c34,1129 -198,924 994,924z"/>
  <path class="fil0" d="M7017 13913l596 -2 393 0 2 -196 1 -199 -1 -527 -397 0c-813,0 -587,50 -594,924z"/>
 </g>
</svg>
