<?xml version="1.0" encoding="utf-8"?>
<!-- Generator: Adobe Illustrator 21.0.0, SVG Export Plug-In . SVG Version: 6.00 Build 0)  -->
<svg version="1.1" id="Layer_1" xmlns="http://www.w3.org/2000/svg" xmlns:xlink="http://www.w3.org/1999/xlink" x="0px" y="0px"
	 viewBox="0 0 34 34" style="enable-background:new 0 0 34 34;" xml:space="preserve">
<style type="text/css">
</style>
<g>
	<g>
		<path fill="none" stroke="#FFFFFF" stroke-width="2" stroke-linecap="round" stroke-linejoin="round" d="M28.3,6c-4.8-4.8-12.6-4.8-17.4,0C6.5,10.4,6.1,17.2,9.7,22l-7.1,7.1c-0.3,0.3-0.3,0.9,0,1.2l1.2,1.2
			c0.3,0.3,0.9,0.3,1.2,0l7.1-7.1c4.8,3.6,11.7,3.2,16.1-1.1C33.1,18.6,33.1,10.8,28.3,6z"/>
	</g>
	<g>
		<path fill="none" stroke="#FFFFFF" stroke-width="2" stroke-linecap="round" stroke-linejoin="round" d="M24.3,8.3c-3-3-7.9-3-10.9,0c-2.7,2.7-3,7-0.7,10"/>
	</g>
</g>
</svg>
