<?xml version="1.0" encoding="utf-8"?>
<!-- Generator: Adobe Illustrator 13.0.0, SVG Export Plug-In . SVG Version: 6.00 Build 14948)  -->
<!DOCTYPE svg PUBLIC "-//W3C//DTD SVG 1.1//EN" "http://www.w3.org/Graphics/SVG/1.1/DTD/svg11.dtd">
<svg version="1.1" id="Layer_1" xmlns="http://www.w3.org/2000/svg" xmlns:xlink="http://www.w3.org/1999/xlink" x="0px" y="0px"
	 width="31.055px" height="23.5px" viewBox="0 0 31.055 23.5" enable-background="new 0 0 31.055 23.5" xml:space="preserve">
<g>
	<path fill="none" stroke="#5D6572" stroke-width="1.5" stroke-linecap="round" stroke-linejoin="round" d="M12.113,4.346
		c0.652,2.673-1.335,5.49-4.44,6.294C4.57,11.444,1.525,9.931,0.874,7.258C0.222,4.586,2.208,1.77,5.313,0.966
		C8.418,0.161,11.462,1.675,12.113,4.346z"/>
	<path fill="none" stroke="#5D6572" stroke-width="1.5" stroke-linecap="round" stroke-linejoin="round" d="M30.181,16.243
		c0.651,2.67-1.336,5.487-4.439,6.291c-3.104,0.804-6.148-0.708-6.8-3.38c-0.652-2.672,1.335-5.489,4.44-6.293
		C26.485,12.057,29.529,13.569,30.181,16.243z"/>
	
		<line fill="none" stroke="#5D6572" stroke-width="1.5" stroke-linecap="round" stroke-linejoin="round" x1="9.73" y1="21.258" x2="21.334" y2="1.832"/>
</g>
</svg>
