<?xml version="1.0" encoding="utf-8"?>
<!-- Generator: Adobe Illustrator 21.0.0, SVG Export Plug-In . SVG Version: 6.00 Build 0)  -->
<svg version="1.1" id="Layer_1" xmlns="http://www.w3.org/2000/svg" xmlns:xlink="http://www.w3.org/1999/xlink" x="0px" y="0px"
	 viewBox="0 0 34 34" style="enable-background:new 0 0 34 34;" xml:space="preserve">
<style type="text/css">
</style>
<g>
	<g data-marker="first-line">
		<path fill="none" stroke="#E2617F" stroke-width="2" stroke-linecap="round" stroke-linejoin="round" d="M32.8,7.6c0,1-0.8,1.9-1.9,1.9H3.1c-1,0-1.9-0.8-1.9-1.9s0.8-1.9,1.9-1.9H31C32,5.7,32.8,6.5,32.8,7.6z"/>
	</g>
	<g data-marker="second-line">
		<path fill="none" stroke="#E2617F" stroke-width="2" stroke-linecap="round" stroke-linejoin="round" d="M32.8,16.9c0,1-0.8,1.9-1.9,1.9H3.1c-1,0-1.9-0.8-1.9-1.9c0-1,0.8-1.9,1.9-1.9H31C32,15,32.8,15.8,32.8,16.9z"/>
	</g>
	<g data-marker="third-line">
		<path fill="none" stroke="#E2617F" stroke-width="2" stroke-linecap="round" stroke-linejoin="round" d="M32.8,26.1c0,1-0.8,1.9-1.9,1.9H3.1c-1,0-1.9-0.8-1.9-1.9c0-1,0.8-1.9,1.9-1.9H31 C32,24.3,32.8,25.1,32.8,26.1z"/>
	</g>
</g>
</svg>
