<?xml version="1.0" encoding="utf-8"?>
<!-- Generator: Adobe Illustrator 21.0.0, SVG Export Plug-In . SVG Version: 6.00 Build 0)  -->
<svg version="1.1" id="Layer_1" xmlns="http://www.w3.org/2000/svg" xmlns:xlink="http://www.w3.org/1999/xlink" x="0px" y="0px"
	 viewBox="0 0 34 34.4" style="enable-background:new 0 0 34 34.4;" xml:space="preserve">
<style type="text/css">
</style>
<g>
	<path fill="none" stroke="#FFFFFF" stroke-width="2" d="M29.7,12.9c-1.3,0-2.3,1-2.3,2.2v-0.9c0-1.2-1-2.2-2.3-2.2s-2.3,0.2-2.3,1.4H11.1c0-1.2-1-1.4-2.3-1.4
		s-2.3,1-2.3,2.2v0.9c0-1.2-1-2.2-2.3-2.2c-1.3,0-2.3,1-2.3,2.2c0,1.2,1.5,2.2,2.7,2.2c0,15.2,4.6,16.1,8.2,16.1c1.8,0,4.1,0,4.1,0
		s2.3,0,4.1,0c3.6,0,8.2-0.9,8.2-16.1c1.3,0,2.7-1,2.7-2.2C32,13.9,31,12.9,29.7,12.9z"/>
	<path fill="#FFFFFF" d="M10.3,8.9C10,9.3,9.2,9.6,8.8,9.3C8.3,9,8.3,8.1,8.6,7.8l5-7.4c0.3-0.4,0.8-0.4,1.3-0.1
		c0.5,0.3,0.6,0.9,0.4,1.2L10.3,8.9z"/>
	<path fill="#FFFFFF" d="M18.8,1.4c-0.3-0.4-0.1-0.9,0.4-1.2c0.5-0.3,1-0.3,1.3,0.1l5,7.4c0.2,0.4,0.3,1.3-0.2,1.6
		c-0.5,0.3-1.3-0.1-1.5-0.5L18.8,1.4z"/>
	<path fill="#FFFFFF" d="M18,27.4c0,0.5-0.5,1.5-1,1.5c-0.6,0-1-1-1-1.5v-11c0-0.6,0.4-1,1-1c0.5,0,1,0.4,1,1V27.4z"/>
	<path fill="#FFFFFF" d="M23.6,29.1c-0.1,0.5-0.6,1.4-1.2,1.4c-0.5-0.1-0.9-1.1-0.8-1.6L23,17.9c0.1-0.6,0.6-0.9,1.1-0.9
		c0.5,0.1,0.9,0.6,0.9,1.1L23.6,29.1z"/>
	<path fill="#FFFFFF" d="M9,18.1c-0.1-0.6,0.3-1,0.9-1.1c0.5-0.1,1,0.3,1.1,0.9l1.4,10.9c0.1,0.5-0.3,1.5-0.8,1.6
		c-0.5,0.1-1.1-0.8-1.2-1.4L9,18.1z"/>
</g>
</svg>
