<?xml version="1.0" encoding="utf-8"?>
<!-- Generator: Adobe Illustrator 21.0.0, SVG Export Plug-In . SVG Version: 6.00 Build 0)  -->
<svg version="1.1" id="Слой_1" xmlns="http://www.w3.org/2000/svg" xmlns:xlink="http://www.w3.org/1999/xlink" x="0px" y="0px"
	 viewBox="0 0 328.7 338" style="enable-background:new 0 0 328.7 338;" xml:space="preserve">
<style type="text/css">
</style>
<g>
	<circle fill="none" stroke="#749D3E" stroke-width="17" stroke-miterlimit="10" cx="164.3" cy="173.7" r="155.8"/>
	<path d="M215.6,0"/>
	<path fill="#749D3E" d="M243.6,45.2c-6-2.6-11.4,9.9-28,18.3c-11,5.6-20.9,6.3-38,7.7c-16.2,1.3-18.2-0.8-33.7,1.3
		c-14.2,2-23.6,5.2-25.7,6c-12.3,4.4-20.9,9.8-24.7,12.3c-3.8,2.5-10.5,7.3-17.7,14.7c-5.9,6-9.8,11.4-11.7,14
		c-5.6,8-8.7,14.8-11.7,21.3c-3.2,7.1-5.8,12.8-7.7,21c-1.7,7.3-2.1,13.1-2.3,17.3c-0.3,4.5-0.6,10.8,0.3,19
		c1.1,9,3.2,15.7,4.3,19.3c1.7,5.3,3.4,9.3,5,13c1.8,4.2,3.3,7.6,5.6,11.8c3.8,7,7.9,12.4,11,16c4.7,5.6,8.8,9.1,13,12.8
		c5.3,4.5,11,9.4,19.5,14.3c7.2,4.1,13.1,6.3,17.3,7.8c10.2,3.7,18.4,5.2,21.3,5.8c9.1,1.6,16.1,1.7,18.3,1.8
		c5.9,0.1,10.4-0.4,14.3-0.8c5.7-0.6,10.3-1,16.3-2.5c4.4-1.1,7.8-2.4,14.5-5c5.9-2.3,9.8-3.8,15-6.5c5.3-2.8,9.2-5.3,11.3-6.8
		c2.5-1.7,5.8-3.9,9.8-7.3c4-3.4,6.6-6.2,9.5-9.3c2.9-3.1,5.7-6.1,9-10.5c1-1.4,4-5.5,7.3-11.3c1.9-3.4,3.6-6.5,5.3-11
		c2.3-6.5,2.4-7.3,2.3-7.8c-1.8-4.9-15.3-6.5-19.7-0.9c-1.1,1.3-1.4,1.5-2.8,5.2c-0.2,0.5-1.1,3.3-3,6.2c-2.1,3.2-2.3,3.9-4.9,7.8
		c-2.6,3.9-1.3,2.3-4.6,6.5c-1.9,2.4-3.4,4.4-5.5,6.5c-2.4,2.4-4.7,5.3-8.8,7.9c-5.9,3.8-12.2,8.7-19.9,12
		c-6.4,2.7-12.5,4.5-15.2,5.4c-5.4,1.9-9,2-16.7,3.2c-7.5,1.1-13.2,0.9-17.5,0.8c-6.1-0.2-14.2-1.2-24.4-4.2c-3-0.9-12-4-22.6-10.5
		c-8.2-5-12.7-10-14.5-11.7c-4.8-4.5-9.2-8.8-12.6-16.2c-2.2-4.8-2.2-8.9-0.8-13.5c1.4-4.6,3.3-7.3,8.3-10.8
		c4.2-2.9,6.9-3.6,8.1-4.1c4.1-1.5,8.3-1.8,13.8-2.5c7.7-1,11.5-0.6,13.4-0.5c4.2,0.1,4-0.1,12.3,0.5c4.1,0.3,8,0.6,11.5,0.7
		c9.5,0.2,16.9-0.9,21.7-1.7c10.6-1.7,18.3-4.2,20.2-4.8c7.8-2.6,13.6-5.4,16.7-7c9.6-4.9,16.2-10,18.7-12
		c2.4-1.9,9.3-7.6,16.7-16.5c1.9-2.3,6.3-7.7,10.8-15.5c6-10.1,9-18.5,10-21.3c3.6-10.4,4.8-18.8,5.2-21.2c1-7.6,1-14,0.8-18.2
		c-0.2-4.2-0.5-6.4-2.3-19.3c-1.6-11.8-0.1-14.5-2.2-15.7c-4.2-2.4-14.7,3.3-17.7,12.8c-0.4,1.2,0.5,4,1.5,15.5
		c1.2,14.4,0.6,15.9,0.5,20.8c-0.2,7.7-2.4,14.5-6.5,24c-4.4,10.1-9.9,17.9-11.1,19.6c-3.5,5-5.8,7.6-13.2,14.3
		c-5.6,5.2-8.1,6.2-11.3,8.5c-4.3,3.2-9.2,6.3-18.1,9.7c-15.6,5.9-22.8,6.2-29.2,6.7c-8.7,0.7-7.4,0.8-29-0.1
		c-7.5-0.3-11.6-0.5-16.1-0.2c-6.2,0.4-5-0.7-17.4,1.9c-7.6,1.6-8.7,2.6-12.7,4.6c-0.6,0.3-3.7,0.7-9,6.6c-4.6,5.2-4.1,3.6-4,1.7
		c0.1-2.4,0.2-1,0.4-6.3c0.2-4.7,1-9.1,4.8-15.9c1.9-3.4,4.1-6.7,7.9-10.8c4.5-4.9,5.8-6.8,8.4-8.6c2.7-1.9,4.1-3.1,9-5.3
		c5.7-2.5,9.9-3.7,10.3-3.8c9.7-3,18.3-4.5,24.3-5.6c13.2-2.5,23.1-3.8,33.5-7.4c4.5-1.6,2.4-0.4,19.9-9.1c3.8-1.9,6.9-4.4,11.2-7.5
		c5-3.6,9.7-9.3,9.3-9.8c-0.2-0.2-2.1,1.2-4.5,2.4c-1.9,0.9-3.6,1.7-5.8,3c-1.5,0.9-1.6,0.8-5,2.9c-3.6,2.2-4.9,2.5-6.3,3.1
		c-0.3,0.1-2,1.1-5.1,2.1c-3,1-3.3,1.1-4.3,1.3c-1.7,0.4-2.1,0.5-4.2,0.9c-3.3,0.6-3.6,0.7-6.2,1.2c-2.7,0.5-2.5,0.3-6.7,0.8
		c-1.5,0.2-1.1,0-3.8,0.4c-2.4,0.3-3.6,0.4-4.3,0.4c-3.3,0.3-3.6,0.4-7.2,0.6c-1.4,0.1-1.7-0.1-5.7,0.4c-2.7,0.3-3.7,0.3-6.4,0.5
		c-5.5,0.5-7.9,1.1-9.7,1.4c-4.7,0.7-7.9,1.8-12.1,3.3c-3.9,1.3-6.4,2.4-7.9,3.3c-1.3,0.8-1.8,0.8-3.9,2.5c-1.7,1.3-1.6,1.4-4.1,3.1
		c-2.4,1.7-3.1,2.6-4,3.3c-2.1,1.9-2.1,2.1-4.6,4.6c-2.3,2.2-1.9,2.4-3.9,4.5c-0.6,0.7-1.4,1.9-3.2,4.2c-2,2.5-2.2,3.3-3.2,4.9
		c-1,1.5-0.7,1.4-2.7,5c-1.3,2.4-1.4,2.5-2.2,4.3c0,0-0.8,2.2-1.7,5.1c-2.4,7.4-3,24.3-3.9,24.2c-0.1,0-1.3-2.5-2-5.5
		c-0.5-2.2-0.8-3.4-0.9-4c-0.3-2.4-0.5-4.4-0.4-6.5c0.3-6.3,0.4-8.4,0.5-9.8c0.2-2.9,0.9-7,1.1-9c1.4-13.3,9.2-27.7,10.4-30.2
		c5-9.8,7.8-14.2,13.3-19.6c5.3-5.1,6.2-5.1,19.9-16.1c2.1-1.7,4.4-2.8,8.4-5.2c2.2-1.3,7.3-3.7,13.7-5.8c6.2-2,11.9-2.8,21.8-3.6
		c2.5-0.2,5-0.1,14.4-0.5c22.8-0.9,22.7-1.4,27.6-2.2c7.9-1.2,13.5-2.5,20.8-4.8c7.1-2.1,11.6-4.5,13.5-5.3
		c5.5-2.4,8.5-3.6,12.1-6.4c1.7-1.4,4.3-1.7,5.1-2.8c1.5-2.1,1.6-3,3.1-5.4c1.4-2.2,14.6-3.7,15.4-4.9
		C265.8,55.5,248,47.1,243.6,45.2z"/>
</g>
</svg>
