<?xml version="1.0" encoding="utf-8"?>
<!-- Generator: Adobe Illustrator 21.0.0, SVG Export Plug-In . SVG Version: 6.00 Build 0)  -->
<svg version="1.1" id="Layer_1" xmlns="http://www.w3.org/2000/svg" xmlns:xlink="http://www.w3.org/1999/xlink" x="0px" y="0px"
	 viewBox="0 0 494.7 390.7" style="enable-background:new 0 0 494.7 390.7;" xml:space="preserve">
<style type="text/css">
	.st0{fill:#CECECE;}
</style>
<path class="st0" d="M460,0H34.8C15.6,0,0,15.6,0,34.8v234.6c0,19.2,15.6,34.8,34.8,34.8h37.6c3.5,0,6.8,1.6,8.9,4.3l61.3,77.9
	c2.2,2.7,5.5,4.3,8.9,4.3s6.8-1.6,8.9-4.3l61.3-77.8c2.2-2.7,5.5-4.3,8.9-4.3H460c19.2,0,34.8-15.6,34.8-34.8V34.8
	C494.7,15.6,479.2,0,460,0z M130.3,116.1c20.9,0,37.8,16.9,37.8,37.8c0,20.9-16.9,37.8-37.8,37.8c-20.9,0-37.8-16.9-37.8-37.8
	C92.5,133,109.4,116.1,130.3,116.1z M247.4,191.7c-20.9,0-37.8-16.9-37.8-37.8c0-20.9,16.9-37.8,37.8-37.8
	c20.9,0,37.8,16.9,37.8,37.8C285.2,174.8,268.2,191.7,247.4,191.7z M364.4,191.7c-20.9,0-37.8-16.9-37.8-37.8
	c0-20.9,16.9-37.8,37.8-37.8s37.8,16.9,37.8,37.8C402.2,174.8,385.3,191.7,364.4,191.7z"/>
</svg>
