<svg xmlns="http://www.w3.org/2000/svg" xmlns:xlink="http://www.w3.org/1999/xlink" preserveAspectRatio="xMidYMid" width="87" height="76" viewBox="0 0 87 76">
  <defs>
    <style>
      .cls-1 {
        fill: #749d3e;
        fill-rule: evenodd;
      }
    </style>
  </defs>
  <path d="M86.579,0.396 C86.190,0.016 85.615,-0.101 85.108,0.096 L0.883,32.851 C0.383,33.046 0.039,33.512 0.001,34.048 C-0.037,34.584 0.237,35.094 0.704,35.358 L18.159,45.206 L24.217,74.857 C24.254,75.066 24.340,75.262 24.462,75.429 C24.474,75.446 24.484,75.459 24.494,75.472 C24.708,75.739 25.010,75.926 25.363,75.982 C25.408,75.990 25.453,75.995 25.498,75.997 C25.527,75.999 25.556,76.000 25.585,76.000 C25.850,76.000 26.101,75.924 26.315,75.791 C26.387,75.746 26.456,75.694 26.520,75.635 C26.540,75.617 26.557,75.601 26.574,75.583 L39.713,62.393 C40.254,61.849 40.253,60.969 39.710,60.427 C39.167,59.884 38.288,59.886 37.747,60.429 L27.426,70.791 L29.656,51.666 L61.176,68.991 C61.494,69.164 61.846,69.201 62.170,69.123 C62.205,69.115 62.238,69.105 62.270,69.095 C62.589,68.991 62.869,68.776 63.047,68.466 C63.056,68.450 63.064,68.436 63.072,68.421 C63.108,68.352 63.137,68.285 63.159,68.217 L86.918,1.861 C87.101,1.349 86.969,0.776 86.579,0.396 ZM4.625,34.379 L73.467,7.606 L19.342,42.682 L4.625,34.379 ZM27.648,48.369 C27.518,48.474 27.405,48.603 27.316,48.755 C27.305,48.775 27.294,48.795 27.283,48.815 C27.199,48.979 27.150,49.151 27.134,49.324 L25.208,65.838 L20.942,44.957 L67.689,14.662 L27.648,48.369 ZM61.087,65.769 L30.962,49.212 L82.569,5.769 L61.087,65.769 Z" class="cls-1"/>
</svg>
